<svg fill="none" viewBox="0 0 152 105" height="105" width="152" xmlns="http://www.w3.org/2000/svg"
    class="svg-star active" name="star-2">
    <rect xmlns="http://www.w3.org/2000/svg" x="0.5" y="0.5" width="151" height="104" rx="52"
        stroke="#D9D9D9" class="svg-elem-1"></rect>
    <path xmlns="http://www.w3.org/2000/svg" fill-rule="evenodd" clip-rule="evenodd"
        d="M78.2744 40.1899L75.7744 11.1365L74.3203 40.261C74.261 41.4498 73.9947 42.5848 73.5563 43.6298C73.0192 43.1394 72.5286 42.5835 72.097 41.9651L62.4694 28.1735L70.1424 43.1409C70.4554 43.7516 70.7 44.3811 70.8783 45.0202C70.5035 44.7823 70.1408 44.5169 69.7928 44.2241L63.2534 38.7209L68.988 45.0583C69.2928 45.3951 69.5707 45.7476 69.8217 46.1131C69.1767 45.9578 68.5389 45.7361 67.9175 45.4452L52.684 38.3152L66.8127 47.4408C67.4467 47.8503 68.0202 48.3209 68.53 48.8405C67.5011 49.3164 66.3763 49.6234 65.19 49.7255L36.1366 52.2254L65.2611 53.6795C66.4505 53.7389 67.586 54.0054 68.6315 54.4442C68.1412 54.9809 67.5856 55.4712 66.9676 55.9026L53.176 65.5301L68.1434 57.8572C68.7532 57.5445 69.3819 57.3002 70.0201 57.1219C69.7823 57.4965 69.5171 57.8591 69.2244 58.2068L63.7212 64.7462L70.0586 59.0116C70.3947 58.7074 70.7464 58.4301 71.1111 58.1795C70.9559 58.8233 70.7344 59.4599 70.4441 60.0801L63.314 75.3136L72.4397 61.185C72.8492 60.5509 73.3199 59.9773 73.8396 59.4675C74.3161 60.497 74.6235 61.6227 74.7256 62.8098L77.2256 91.8632L78.6797 62.7387C78.7391 61.5486 79.0058 60.4126 79.4451 59.3666C79.9825 59.8572 80.4732 60.4134 80.9051 61.032L90.5326 74.8235L82.8597 59.8561C82.5473 59.2469 82.3032 58.6188 82.1249 57.9812C82.4985 58.2186 82.8602 58.4832 83.2071 58.7752L89.7465 64.2784L84.0118 57.941C83.7072 57.6043 83.4294 57.252 83.1785 56.8866C83.8222 57.0418 84.4588 57.2633 85.079 57.5536L100.312 64.6836L86.1838 55.558C85.5506 55.149 84.9775 54.6789 84.4682 54.16C85.4976 53.6836 86.623 53.3763 87.81 53.2742L116.863 50.7743L87.7389 49.3201C86.5494 49.2608 85.4138 48.9943 84.3683 48.5554C84.8591 48.0176 85.4155 47.5266 86.0344 47.0945L99.826 37.4669L84.8586 45.1399C84.2485 45.4526 83.6196 45.697 82.9811 45.8753C83.2186 45.5015 83.4834 45.1396 83.7755 44.7925L89.2787 38.2531L82.9413 43.9877C82.6039 44.293 82.2508 44.5713 81.8846 44.8227C82.0399 44.1778 82.2616 43.54 82.5524 42.9187L89.6825 27.6852L80.5568 41.8138C80.1479 42.447 79.6779 43.02 79.1591 43.5292C78.6833 42.5006 78.3764 41.3759 78.2744 40.1899Z"
        fill="#D9D9D9" class="svg-elem-2"></path>
</svg>