<svg fill="none" viewBox="0 0 114 68" height="68" width="114" xmlns="http://www.w3.org/2000/svg"
    class="svg-logo active" name="logo">
    <path xmlns="http://www.w3.org/2000/svg"
        d="M103.625 16.451C104.362 18.492 103.843 20.9622 102.099 23.7457C100.359 26.5227 97.444 29.533 93.5559 32.5906C85.7839 38.7022 74.2145 44.9312 60.6893 49.811C47.164 54.6908 34.2827 57.2835 24.3989 57.5418C19.4543 57.6711 15.2889 57.2152 12.1766 56.1889C9.05706 55.1602 7.08085 53.5901 6.34448 51.5491C5.79713 50.032 5.94199 48.2823 6.76986 46.3359C7.59918 44.3861 9.10184 42.2713 11.2121 40.0667C15.4318 35.6584 22.0086 30.9659 30.2059 26.594C32.2395 25.5093 34.3717 24.4451 36.591 23.4103C39.4212 22.0906 42.3927 20.8191 45.4814 19.6146C46.7292 19.1281 47.996 18.6525 49.2804 18.1891C62.8056 13.3093 75.687 10.7166 85.5707 10.4582C90.5154 10.329 94.6807 10.7849 97.793 11.8112C100.913 12.8399 102.889 14.41 103.625 16.451Z"
        stroke="#FEC4D2" class="svg-elem-1"></path>
    <path xmlns="http://www.w3.org/2000/svg"
        d="M36.1091 40.0367C36.1091 40.3029 36.0331 40.5122 35.8809 40.6643C35.7287 40.8165 35.5195 40.8925 35.2532 40.8925H20.7316C20.4653 40.8925 20.2561 40.8165 20.104 40.6643C19.9518 40.5122 19.8757 40.3029 19.8757 40.0367V38.1822C19.8757 37.9159 19.9518 37.7067 20.104 37.5546C20.2561 37.4024 20.4653 37.3168 20.7316 37.2978C22.1581 37.2407 23.4134 37.0505 24.4975 36.7272C25.5817 36.3849 26.5232 35.9664 27.322 35.4719C28.1208 34.9584 28.7865 34.3878 29.3191 33.7601C29.8706 33.1325 30.3176 32.4953 30.66 31.8486C31.4588 30.327 31.8963 28.6248 31.9723 26.7418C31.9723 26.1902 31.8963 25.6291 31.7441 25.0586C31.5919 24.488 31.3637 23.9744 31.0594 23.5179C30.7551 23.0615 30.3652 22.6906 29.8897 22.4053C29.4332 22.101 28.8911 21.9488 28.2635 21.9488C27.6168 21.9488 27.0462 22.12 26.5517 22.4624C26.0572 22.8047 25.6292 23.2422 25.2678 23.7747C24.9255 24.2883 24.6497 24.8588 24.4405 25.4865C24.2313 26.0951 24.0981 26.6752 24.0411 27.2268C24.003 27.4931 23.9079 27.7023 23.7558 27.8545C23.6226 28.0066 23.4229 28.0827 23.1566 28.0827H21.3022C21.0359 28.0827 20.8172 28.0066 20.646 27.8545C20.4939 27.7023 20.4368 27.4931 20.4749 27.2268C20.589 26.2758 20.9028 25.4104 21.4163 24.6306C21.9489 23.8318 22.5956 23.1566 23.3564 22.605C24.1362 22.0344 24.9826 21.5969 25.8955 21.2926C26.8275 20.9883 27.7499 20.8362 28.6629 20.8362C29.5188 20.8362 30.3556 20.9693 31.1735 21.2356C32.0104 21.4828 32.7521 21.8537 33.3988 22.3482C34.0455 22.8427 34.559 23.4609 34.9394 24.2027C35.3388 24.9444 35.5385 25.7908 35.5385 26.7418C35.4434 28.2634 35.0535 29.7089 34.3688 31.0783C34.0835 31.6679 33.7126 32.2671 33.2562 32.8757C32.7997 33.4653 32.2386 34.0454 31.5729 34.616C30.9262 35.1676 30.1559 35.6811 29.262 36.1566C28.3871 36.6131 27.36 37.003 26.1808 37.3263H35.2532C35.5195 37.3263 35.7287 37.4024 35.8809 37.5546C36.0331 37.7067 36.1091 37.9159 36.1091 38.1822V40.0367Z"
        fill="white" class="svg-elem-2"></path>
    <path xmlns="http://www.w3.org/2000/svg"
        d="M53.909 31.1354C53.909 32.8852 53.7188 34.3592 53.3384 35.5575C52.958 36.7557 52.4825 37.7448 51.9119 38.5246C51.3413 39.2854 50.7327 39.8845 50.086 40.322C48.9448 41.0827 47.661 41.5202 46.2345 41.6343H45.7495C44.323 41.5202 43.0487 41.0827 41.9265 40.322C41.2989 39.8845 40.6807 39.2854 40.0721 38.5246C39.4825 37.7638 39.007 36.7748 38.6456 35.5575C38.2842 34.3402 38.1035 32.8662 38.1035 31.1354C38.1035 29.823 38.2082 28.6723 38.4174 27.6833C38.6456 26.6752 38.9404 25.8098 39.3018 25.0871C39.6632 24.3453 40.0721 23.7272 40.5286 23.2327C40.985 22.7191 41.451 22.3007 41.9265 21.9773C43.0487 21.2166 44.323 20.7791 45.7495 20.665H46.2345C47.661 20.7791 48.9448 21.2166 50.086 21.9773C50.5615 22.3007 51.0275 22.7191 51.484 23.2327C51.9405 23.7272 52.3494 24.3453 52.7108 25.0871C53.0721 25.8098 53.3574 26.6752 53.5666 27.6833C53.7949 28.6723 53.909 29.823 53.909 31.1354ZM41.6698 31.1354C41.6698 32.2766 41.7268 33.2751 41.8409 34.131C41.9551 34.9869 42.1072 35.7382 42.2974 36.3849C42.5066 37.0125 42.7349 37.5451 42.9821 37.9825C43.2294 38.42 43.4766 38.7813 43.7239 39.0666C44.3135 39.7323 44.9887 40.1032 45.7495 40.1793H46.2345C46.9953 40.1032 47.68 39.7323 48.2887 39.0666C48.5549 38.7813 48.8022 38.42 49.0304 37.9825C49.2777 37.5451 49.4964 37.0125 49.6866 36.3849C49.8958 35.7382 50.0575 34.9869 50.1716 34.131C50.2857 33.2751 50.3428 32.2766 50.3428 31.1354C50.3428 29.9942 50.2857 28.9957 50.1716 28.1398C50.0575 27.2839 49.8958 26.5421 49.6866 25.9144C49.4964 25.2678 49.2777 24.7352 49.0304 24.3168C48.8022 23.8793 48.5549 23.5179 48.2887 23.2327C47.68 22.567 46.9953 22.1866 46.2345 22.0915H45.7495C44.9887 22.1866 44.3135 22.567 43.7239 23.2327C43.4766 23.5179 43.2294 23.8793 42.9821 24.3168C42.7349 24.7352 42.5066 25.2678 42.2974 25.9144C42.1072 26.5421 41.9551 27.2839 41.8409 28.1398C41.7268 28.9957 41.6698 29.9942 41.6698 31.1354Z"
        fill="white" class="svg-elem-3"></path>
    <path xmlns="http://www.w3.org/2000/svg"
        d="M72.1335 40.0367C72.1335 40.3029 72.0574 40.5122 71.9052 40.6643C71.7531 40.8165 71.5439 40.8925 71.2776 40.8925H56.756C56.4897 40.8925 56.2805 40.8165 56.1283 40.6643C55.9761 40.5122 55.9001 40.3029 55.9001 40.0367V38.1822C55.9001 37.9159 55.9761 37.7067 56.1283 37.5546C56.2805 37.4024 56.4897 37.3168 56.756 37.2978C58.1824 37.2407 59.4377 37.0505 60.5219 36.7272C61.606 36.3849 62.5475 35.9664 63.3463 35.4719C64.1452 34.9584 64.8108 34.3878 65.3434 33.7601C65.895 33.1325 66.3419 32.4953 66.6843 31.8486C67.4831 30.327 67.9206 28.6248 67.9967 26.7418C67.9967 26.1902 67.9206 25.6291 67.7684 25.0586C67.6163 24.488 67.388 23.9744 67.0837 23.5179C66.7794 23.0615 66.3895 22.6906 65.914 22.4053C65.4575 22.101 64.9155 21.9488 64.2878 21.9488C63.6411 21.9488 63.0705 22.12 62.576 22.4624C62.0815 22.8047 61.6536 23.2422 61.2922 23.7747C60.9498 24.2883 60.674 24.8588 60.4648 25.4865C60.2556 26.0951 60.1225 26.6752 60.0654 27.2268C60.0274 27.4931 59.9323 27.7023 59.7801 27.8545C59.647 28.0066 59.4473 28.0827 59.181 28.0827H57.3266C57.0603 28.0827 56.8415 28.0066 56.6704 27.8545C56.5182 27.7023 56.4611 27.4931 56.4992 27.2268C56.6133 26.2758 56.9271 25.4104 57.4407 24.6306C57.9732 23.8318 58.6199 23.1566 59.3807 22.605C60.1605 22.0344 61.0069 21.5969 61.9198 21.2926C62.8518 20.9883 63.7743 20.8362 64.6872 20.8362C65.5431 20.8362 66.38 20.9693 67.1978 21.2356C68.0347 21.4828 68.7765 21.8537 69.4231 22.3482C70.0698 22.8427 70.5834 23.4609 70.9638 24.2027C71.3632 24.9444 71.5629 25.7908 71.5629 26.7418C71.4678 28.2634 71.0779 29.7089 70.3932 31.0783C70.1079 31.6679 69.737 32.2671 69.2805 32.8757C68.824 33.4653 68.2629 34.0454 67.5972 34.616C66.9506 35.1676 66.1803 35.6811 65.2863 36.1566C64.4114 36.6131 63.3844 37.003 62.2051 37.3263H71.2776C71.5439 37.3263 71.7531 37.4024 71.9052 37.5546C72.0574 37.7067 72.1335 37.9159 72.1335 38.1822V40.0367Z"
        fill="white" class="svg-elem-4"></path>
    <path xmlns="http://www.w3.org/2000/svg"
        d="M90.0475 35.7287C90.0475 36.7177 89.8477 37.5831 89.4483 38.3249C89.0679 39.0476 88.5544 39.6563 87.9077 40.1508C87.2801 40.6263 86.5478 40.9876 85.7109 41.2349C84.8931 41.4822 84.0467 41.6153 83.1718 41.6343H81.6312C80.8133 41.5963 79.9955 41.4251 79.1776 41.1208C78.3598 40.8355 77.599 40.4456 76.8953 39.9511C76.1915 39.4566 75.5829 38.8669 75.0694 38.1822C74.5558 37.4975 74.1944 36.7462 73.9852 35.9284C73.9282 35.6621 73.9757 35.4434 74.1279 35.2722C74.28 35.082 74.4988 34.9869 74.7841 34.9869H76.61C76.8572 34.9869 77.0569 35.063 77.2091 35.2151C77.3803 35.3673 77.4849 35.5575 77.5229 35.7857C77.618 36.2993 77.7702 36.8413 77.9794 37.4119C78.1886 37.9635 78.4644 38.4675 78.8068 38.924C79.1491 39.3805 79.558 39.7609 80.0335 40.0652C80.509 40.3695 81.0416 40.5217 81.6312 40.5217H82.8294C83.4571 40.5217 83.9992 40.379 84.4556 40.0937C84.9311 39.7894 85.3115 39.409 85.5968 38.9525C85.9011 38.477 86.1199 37.9635 86.253 37.4119C86.4052 36.8413 86.4812 36.2802 86.4812 35.7287C86.4242 34.9298 86.215 34.2071 85.8536 33.5604C85.7014 33.2751 85.5017 32.9993 85.2545 32.733C85.0262 32.4668 84.7409 32.229 84.3986 32.0198C84.0562 31.7916 83.6473 31.6014 83.1718 31.4492C82.7153 31.2971 82.1828 31.202 81.5741 31.1639C81.2128 31.1259 81.0321 30.9357 81.0321 30.5933C81.0321 30.251 81.2128 30.0608 81.5741 30.0227C82.6202 29.9657 83.4191 29.766 83.9706 29.4236C84.5222 29.0622 84.9311 28.6818 85.1974 28.2824C85.4827 27.8259 85.6444 27.3124 85.6824 26.7418C85.6824 26.1902 85.6063 25.6291 85.4542 25.0586C85.321 24.488 85.1023 23.9744 84.798 23.5179C84.5127 23.0615 84.1323 22.6906 83.6568 22.4053C83.2003 22.101 82.6488 21.9488 82.0021 21.9488C81.3934 21.9488 80.8514 22.101 80.3759 22.4053C79.9194 22.6906 79.52 23.071 79.1776 23.5465C78.8353 24.003 78.55 24.5165 78.3217 25.0871C78.1125 25.6387 77.9604 26.1712 77.8653 26.6847C77.8272 26.913 77.7226 27.1032 77.5514 27.2553C77.3993 27.3885 77.1996 27.4551 76.9523 27.4551H75.1264C74.8411 27.4551 74.6224 27.3695 74.4702 27.1983C74.3181 27.0271 74.2705 26.8084 74.3276 26.5421C74.5368 25.6862 74.9077 24.9064 75.4402 24.2027C75.9918 23.4989 76.6385 22.8998 77.3803 22.4053C78.122 21.8918 78.9304 21.5019 79.8053 21.2356C80.6802 20.9693 81.5456 20.8362 82.4015 20.8362C83.2764 20.8362 84.1228 20.9693 84.9406 21.2356C85.7585 21.4828 86.4812 21.8537 87.1089 22.3482C87.7556 22.8427 88.2691 23.4609 88.6495 24.2027C89.0489 24.9254 89.2486 25.7718 89.2486 26.7418C89.2106 27.2553 89.0489 27.7499 88.7636 28.2254C88.5164 28.6438 88.1265 29.0717 87.5939 29.5092C87.0804 29.9276 86.3291 30.289 85.3401 30.5933C86.5383 30.9547 87.4513 31.4302 88.0789 32.0198C88.7066 32.5904 89.163 33.1515 89.4483 33.7031C89.8097 34.3497 90.0094 35.0249 90.0475 35.7287Z"
        fill="white" class="svg-elem-5"></path>
    <path xmlns="http://www.w3.org/2000/svg"
        d="M29.9706 26.1528C13.523 34.925 3.46462 45.0403 5.87415 51.7188C9.11835 60.7107 33.7359 60.0671 60.859 50.2813C87.982 40.4955 107.34 25.2732 104.095 16.2813C100.851 7.28942 76.2337 7.93299 49.1107 17.7188C47.8223 18.1836 46.5515 18.6607 45.2998 19.1488C42.2013 20.3571 39.2199 21.6328 36.3797 22.9571"
        stroke="#FEC4D2" class="svg-elem-6"></path>
    <path xmlns="http://www.w3.org/2000/svg"
        d="M98.6486 19.8014L102.658 15.2339L99.2435 10.206L103.811 14.2156L108.839 10.8009L104.829 15.3684L108.244 20.3963L103.676 16.3867L98.6486 19.8014Z"
        fill="#FEC4D2" class="svg-elem-7"></path>
    <path xmlns="http://www.w3.org/2000/svg"
        d="M66.6291 50.2796C66.2807 50.2391 66.1814 49.7802 66.4819 49.5992L66.9852 49.296C67.0828 49.2372 67.1476 49.1366 67.1608 49.0234L67.2288 48.4398C67.2693 48.0913 67.7282 47.992 67.9092 48.2925L68.2124 48.7959C68.2712 48.8934 68.3718 48.9582 68.4849 48.9714L69.0686 49.0394C69.4171 49.08 69.5164 49.5388 69.2159 49.7198L68.7125 50.0231C68.615 50.0818 68.5502 50.1825 68.537 50.2956L68.469 50.8793C68.4284 51.2277 67.9696 51.327 67.7885 51.0265L67.4853 50.5232C67.4266 50.4256 67.3259 50.3608 67.2128 50.3476L66.6291 50.2796Z"
        fill="#FEC4D2" class="svg-elem-8"></path>
    <path xmlns="http://www.w3.org/2000/svg"
        d="M35.3419 45.2876V46.1121H30.7399V58.0005H28.6019V46.1121H24V45.2876H35.3419Z"
        fill="white" class="svg-elem-9"></path>
    <path xmlns="http://www.w3.org/2000/svg"
        d="M41.0655 45L47.0481 58.0005H44.8717L42.9351 53.7629H37.4799L35.4761 58.0005H34.4023L40.5286 45H41.0655ZM37.8538 52.9384H42.542L40.2314 47.905L37.8538 52.9384Z"
        fill="white" class="svg-elem-10"></path>
    <path xmlns="http://www.w3.org/2000/svg"
        d="M48.8217 45.2876H53.2319C53.9925 45.2876 54.6604 45.3707 55.2357 45.5369C55.8109 45.6967 56.2903 45.9236 56.6738 46.2176C57.0573 46.5116 57.3449 46.8631 57.5367 47.2722C57.7348 47.6749 57.8339 48.1159 57.8339 48.5953C57.8339 48.9915 57.7572 49.3623 57.6038 49.7074C57.4568 50.0525 57.2458 50.3657 56.971 50.647C56.7026 50.9218 56.3766 51.1615 55.9931 51.366C55.6096 51.5642 55.1877 51.7208 54.7276 51.8358L59.3583 58.0005H56.8751L52.4553 52.0275H50.9597V58.0005H48.8217V45.2876ZM50.9597 51.3852H52.1965C52.6759 51.3852 53.1169 51.3213 53.5195 51.1934C53.9286 51.0656 54.2801 50.8867 54.5742 50.6566C54.8746 50.4201 55.1079 50.1356 55.274 49.8033C55.4402 49.4709 55.5233 49.097 55.5233 48.6816C55.5233 48.2981 55.4562 47.9465 55.322 47.6269C55.1941 47.3074 55.0088 47.0357 54.7659 46.812C54.5294 46.5819 54.245 46.403 53.9126 46.2751C53.5867 46.1473 53.2287 46.0834 52.8388 46.0834H50.9597V51.3852Z"
        fill="white" class="svg-elem-11"></path>
    <path xmlns="http://www.w3.org/2000/svg"
        d="M66.9994 58.2977C66.0151 58.2977 65.0947 58.1219 64.2382 57.7704C63.3882 57.4189 62.6467 56.9395 62.014 56.3323C61.3876 55.7187 60.8922 55.006 60.5279 54.1943C60.17 53.3762 59.991 52.5037 59.991 51.5769C59.991 50.9697 60.0709 50.3849 60.2307 49.8225C60.3969 49.26 60.6302 48.7359 60.9306 48.2501C61.231 47.7644 61.5921 47.3233 62.014 46.9271C62.4422 46.5244 62.9152 46.1824 63.4329 45.9012C63.9506 45.6136 64.5099 45.3931 65.1107 45.2397C65.7115 45.0799 66.3411 45 66.9994 45C67.6577 45 68.2873 45.0799 68.8881 45.2397C69.4889 45.3931 70.0482 45.6136 70.5659 45.9012C71.09 46.1824 71.563 46.5244 71.9848 46.9271C72.4067 47.3233 72.7678 47.7644 73.0682 48.2501C73.375 48.7359 73.6083 49.26 73.7681 49.8225C73.9343 50.3849 74.0174 50.9697 74.0174 51.5769C74.0174 52.1905 73.9343 52.785 73.7681 53.3602C73.6083 53.929 73.375 54.4627 73.0682 54.9613C72.7678 55.4598 72.4067 55.9136 71.9848 56.3227C71.563 56.7318 71.09 57.0833 70.5659 57.3773C70.0482 57.6713 69.4889 57.8982 68.8881 58.058C68.2873 58.2178 67.6577 58.2977 66.9994 58.2977ZM66.9994 57.6649C67.728 57.6649 68.3704 57.5147 68.9265 57.2143C69.4889 56.9075 69.9619 56.4825 70.3454 55.9392C70.7289 55.3959 71.0165 54.7536 71.2083 54.0121C71.4064 53.2707 71.5055 52.459 71.5055 51.5769C71.5055 50.7013 71.4064 49.8992 71.2083 49.1705C71.0165 48.4419 70.7289 47.8155 70.3454 47.2914C69.9619 46.7609 69.4889 46.3518 68.9265 46.0642C68.3704 45.7702 67.728 45.6232 66.9994 45.6232C66.258 45.6232 65.606 45.7702 65.0436 46.0642C64.4875 46.3518 64.0177 46.7609 63.6342 47.2914C63.2571 47.8155 62.9727 48.4419 62.781 49.1705C62.5892 49.8992 62.4933 50.7013 62.4933 51.5769C62.4933 52.459 62.5892 53.2707 62.781 54.0121C62.9727 54.7536 63.2571 55.3959 63.6342 55.9392C64.0177 56.4825 64.4875 56.9075 65.0436 57.2143C65.606 57.5147 66.258 57.6649 66.9994 57.6649Z"
        fill="white" class="svg-elem-12"></path>
    <path xmlns="http://www.w3.org/2000/svg"
        d="M85.7715 45.2876V46.1121H81.1695V58.0005H79.0316V46.1121H74.4296V45.2876H85.7715Z"
        fill="white" class="svg-elem-13"></path>
</svg>